<svg version="1" xmlns="http://www.w3.org/2000/svg" width="682.667" height="682.667" viewBox="0 0 512.000000 512.000000"><path d="M130.5 28.9c-4.4 1.1-7 2.7-9.9 6.1-4.6 5.6-4.9 8.1-5.3 48.7l-.4 38.1-33.7.4c-29.6.3-34.2.6-37.7 2.1-8.1 3.6-11.8 9.2-11.8 17.7 0 3 .5 6.6 1.2 7.9 2.9 5.3 8.5 11.7 12.4 14.1l4.2 2.5 32.7.3 32.6.3.4 35.7c.4 39.6.4 39.8 7.2 48.7 5.5 7.3 9.7 9.5 17.6 9.5 12.6 0 18.3-6.1 20-21.2.6-4.6 1-22.8 1-40.5v-32.2l34.8-.3 34.7-.3 4.3-2.5c6.2-3.5 9.2-9 9.2-16.9 0-10.3-4.4-16.1-17-22.3-4.3-2.2-5.8-2.3-35.2-2.6l-30.8-.4V89.7c0-33.4-.7-41.5-3.8-47.6-1.7-3.3-7.3-8.2-13.2-11.5-3.3-1.8-9.7-2.6-13.5-1.7zM283.5 85.7c-9.5 1.3-15.1 4.6-18.2 10.7-1.9 3.7-2.2 13.1-.4 16.5 2.9 5.3 8.5 11.7 12.4 14.1l4.2 2.5 96.9.3c106.3.3 103.1.4 108.9-5.6 5.7-5.9 7.2-15.2 3.8-22.9-2.2-4.7-11.5-12.6-17.1-14.5-2.6-.9-26.7-1.3-95.5-1.4-50.6-.1-93.3.1-95 .3zM283.5 160.7c-13.5 1.9-19.8 8.1-19.8 19.4 0 3.9.6 6.6 1.9 8.6 1 1.6 3 4.6 4.3 6.7 1.3 2 4.4 4.9 7 6.4l4.6 2.7 96.9.3c107.3.3 103 .5 109.4-6.1 5.4-5.6 6.7-14.7 3.3-22.4-2.2-4.7-11.5-12.6-17.1-14.5-2.6-.9-26.7-1.3-95.5-1.4-50.6-.1-93.3.1-95 .3zM368 285.1c-5.3 1.6-8.6 4.5-11.2 9.7-2.2 4.5-2.3 5.9-2.6 28.4-.2 15.2-.7 23.8-1.4 23.8-.5 0-9.4-2.7-19.6-6-23.4-7.4-27.4-8.3-31.9-7.1-8.2 2.3-14.2 10.3-14.3 18.8 0 5.5 1.1 8.2 6.2 14.9 5.2 6.9 8.6 8.7 29.6 15.3l16.3 5.2-1.7 2.7c-1 1.5-4.9 6.9-8.7 12.1-19.3 26.2-20.3 30.9-9 44.6 6.3 7.6 9.8 9.5 17.8 9.5 9.6 0 11.4-1.6 28.2-24.8 6.9-9.4 12.7-17.2 12.9-17.2.2 0 6.1 7.8 13.2 17.2 7.1 9.5 14 18.3 15.3 19.5 3.4 3.1 7.2 4.3 13.5 4.3 9.7 0 16.9-5.5 19.4-14.8 1.2-4.8.7-8.9-2-14.2-1.4-2.7-20.7-30.1-25.1-35.6-.7-.8 4.6-3 18.3-7.4 26.1-8.4 29.3-10.1 33-17.4 2.8-5.4 2.2-15-1.1-19.7-3.1-4.5-11.6-11-16.5-12.6-4.9-1.7-8.6-1-30.8 6.1l-16.6 5.3-.4-21.1c-.3-19.4-.5-21.4-2.5-25.2-2.1-3.9-9.4-10.8-13.8-13.2-3.2-1.6-10.7-2.2-14.5-1.1zM52 388.5c0 17.8.1 18.5 2 18.5 1.5 0 2 .7 2 2.5v2.5h168v-37h-2.5c-2 0-2.5-.5-2.5-2.5V370H52v18.5z"/></svg>